# xmcd CD database file
#
# Track frame offsets:
#	150
#	19945
#	41105
#
# Disc length: 808 seconds
#
# Revision: 0
# Processed by: cddbd v1.5.1PL0 Copyright (c) Steve Scherf et al.
# Submitted via: CDex 1.51
#
DISCID=20032603
DTITLE=TWINZER - こんな時君に逢いたい
DYEAR=1995
DGENRE=J-Rock
TTITLE0=こんな時君に逢いたい
TTITLE1=I'm Looking For Loving
TTITLE2=こんな時君に逢いたい（オリジナル・カラオケ）
EXTD=YEAR: 1995
EXTT0=
EXTT1=
EXTT2=
PLAYORDER=
